PathFileType	4	(X/Y/Z)	Formatted/subject01/trials/walk2/markers.trc
DataRate	CameraRate	NumFrames	NumMarkers	Units	OrigDataRate	OrigDataStartFrame	OrigNumFrames
200.00000000000426	200.00000000000426	4	64	m	200.00000000000426	27	223
Frame#	Time	CLAV			C7			RACR			RASH			RPSH			RLEL			RMEL			RUA1			RUA2			RUA3			RFAsuperior			RFAradius			RFAulna			RASI			RPSI			RCAL			RTOE			RMT5			RTH1			RTH2			RTH3			RTB1			RTB2			RTB3			RLFC			RMFC			RLMAL			RMMAL			RHJC			RKJC			REJC			RAJC			RSJC			LACR			LASH			LPSH			LLEL			LMEL			LUA1			LUA2			LUA3			LFAsuperior			LFAradius			LFAulna			LASI			LPSI			LCAL			LTOE			LMT5			LTH1			LTH2			LTH3			LTB1			LTB2			LTB3			LLFC			LMFC			LLMAL			LMMAL			LHJC			LKJC			LEJC			LAJC			LSJC			
		X1	Y1	Z1	X2	Y2	Z2	X3	Y3	Z3	X4	Y4	Z4	X5	Y5	Z5	X6	Y6	Z6	X7	Y7	Z7	X8	Y8	Z8	X9	Y9	Z9	X10	Y10	Z10	X11	Y11	Z11	X12	Y12	Z12	X13	Y13	Z13	X14	Y14	Z14	X15	Y15	Z15	X16	Y16	Z16	X17	Y17	Z17	X18	Y18	Z18	X19	Y19	Z19	X20	Y20	Z20	X21	Y21	Z21	X22	Y22	Z22	X23	Y23	Z23	X24	Y24	Z24	X25	Y25	Z25	X26	Y26	Z26	X27	Y27	Z27	X28	Y28	Z28	X29	Y29	Z29	X30	Y30	Z30	X31	Y31	Z31	X32	Y32	Z32	X33	Y33	Z33	X34	Y34	Z34	X35	Y35	Z35	X36	Y36	Z36	X37	Y37	Z37	X38	Y38	Z38	X39	Y39	Z39	X40	Y40	Z40	X41	Y41	Z41	X42	Y42	Z42	X43	Y43	Z43	X44	Y44	Z44	X45	Y45	Z45	X46	Y46	Z46	X47	Y47	Z47	X48	Y48	Z48	X49	Y49	Z49	X50	Y50	Z50	X51	Y51	Z51	X52	Y52	Z52	X53	Y53	Z53	X54	Y54	Z54	X55	Y55	Z55	X56	Y56	Z56	X57	Y57	Z57	X58	Y58	Z58	X59	Y59	Z59	X60	Y60	Z60	X61	Y61	Z61	X62	Y62	Z62	X63	Y63	Z63	X64	Y64	Z64	

28	3.515	1.175402787978513	1.442445113612919	-0.4602015781900713	1.056527177752091	1.514027955203345	-0.4913739170518192	1.123321937973897	1.462918561970914	-0.3266303026915662	1.178385083365739	1.422143214130088	-0.3016803180988539	1.080662147312332	1.441844861353626	-0.2956695183333484	0.9695289250485564	1.137221768347246	-0.2506467094796129	0.9809168642895832	1.125802000090115	-0.3305416896510554	1.018107331677461	1.357966171203286	-0.2702217247454036	1.062325561843225	1.288816328185958	-0.2681089262417991	1.005605212275527	1.194078564751678	-0.2517879367173954	1.013240489202457	1.035715829083435	-0.2641289780293703	1.025104343979733	0.8633481134516164	-0.2705288311212619	0.9572435216146314	0.8697029862319328	-0.2614418823598744	1.162771623014811	1.014653507525374	-0.391753463046152	0.989080419357702	1.052127693669997	-0.4497279611254551	1.176496287732436	0.04430605138214612	-0.4425823568215527	1.417294488766411	0.04943434600101257	-0.4686364745214733	1.374611390619996	0.01730806675282638	-0.3740047699854798	1.094903053273679	0.891303503575155	-0.3350994343765069	1.095040005218208	0.7375548211758444	-0.3569423168242849	1.185122674907397	0.6087477359450368	-0.3659647030954792	1.296210564696252	0.3703566258754284	-0.4321531293617088	1.222681151468288	0.3172438061014019	-0.3660192295421316	1.285739191889332	0.1817133899492113	-0.4444660251950618	1.244561493827482	0.5332195863290841	-0.3685955156998871	1.253124005217947	0.5351400781297131	-0.4820249825437891	1.253168459500465	0.06048553773682058	-0.3818398500033528	1.263965287975449	0.0638993431621912	-0.4859010711717132	1.078309359185556	0.9060061947378047	-0.4318879457074023	1.252999218658293	0.5328248728454796	-0.427468084450275	0.9758915157944847	1.120286057620061	-0.2955518928157948	1.245766768287164	0.04877376549083012	-0.4425438120602169	1.132606773971521	1.431372450771954	-0.2988645589487028	1.103357205938774	1.486280822103961	-0.6559559158796658	1.158653206132589	1.442781938425401	-0.6901267700465945	1.05311243519491	1.464059717426823	-0.6836351062998485	1.045049993577914	1.125199420755131	-0.7714779697449887	1.041660038697474	1.112200276382515	-0.6853473161436565	1.033214591507059	1.360317056446766	-0.7187926733826139	1.087608273252693	1.286446529319101	-0.7339583265923505	1.052319299430217	1.195827176911072	-0.7551588182394382	1.117359604448419	1.074802201138843	-0.7560245410347389	1.245285620283493	0.9449364815890696	-0.7279164251020316	1.194419018396953	0.9003062610165115	-0.7516654941953513	1.141674033975683	1.015882451490746	-0.6410366551143847	0.980154859465252	1.057194766122652	-0.56210326145782	0.599265433852036	0.2180835953072799	-0.5638372198481673	0.7624142658795652	0.04577757054333405	-0.5657882545270798	0.6953818849666928	0.04905971685237159	-0.6564334376577571	1.081110908348897	0.8732379943839732	-0.6906104506781354	0.9764656861627312	0.7417273395212292	-0.649649929007287	0.9953103306668408	0.6004332526689742	-0.6589699161076644	0.9445580146665147	0.3698473489630079	-0.6037093283358224	0.8093037128005237	0.3474392325832786	-0.6503772769796851	0.7799245010822776	0.2290518364117201	-0.593044209875995	0.985228756653228	0.5122698163287112	-0.6802656429730755	1.010025323161325	0.4986931402762675	-0.5700655840105843	0.6533478739564759	0.1770651872146797	-0.6362626940848058	0.6774950171150735	0.1668289475110286	-0.5349261350468232	1.066243631847621	0.9073652626426867	-0.5910931265942747	1.001115475441751	0.4996928423590309	-0.6237925936308053	1.04670143403355	1.111893100282738	-0.7231740551784894	0.6482532463154305	0.1716100821361334	-0.5744467717901306	1.112874896738371	1.452011175067268	-0.6873110108964434	
29	3.52	1.181793411227237	1.443096946432256	-0.4599049816284375	1.062668060808699	1.514390939956948	-0.4907845218118266	1.130018734456334	1.463490730889702	-0.3262025543358114	1.185243274712843	1.422852543687013	-0.3013858543638889	1.087490663863134	1.44232691777821	-0.2951222552498405	0.9780229212343591	1.137124597003094	-0.2489746159702975	0.9891910977681685	1.125572752601944	-0.3288816297277919	1.025422273575789	1.358063119752733	-0.2692380008886398	1.069994808077607	1.289141395212593	-0.2671162939513727	1.013808604875108	1.194158968541227	-0.2503751539670918	1.022488835512748	1.035937633564497	-0.2623693580953331	1.03578463523673	0.8636613376601752	-0.2684057594315402	0.9679047601073403	0.869465400274004	-0.259095353022196	1.169983675260827	1.015733387526576	-0.3906565056409489	0.9962332496155473	1.052637483041616	-0.4488189385758353	1.176858186400409	0.0445889074539631	-0.4423793571094378	1.41765250652737	0.04873264676188467	-0.468643684535825	1.374918725465635	0.01666930933626442	-0.3740135067995712	1.102341786501645	0.8918632482221653	-0.3335363898817451	1.101699564170085	0.7381400945820561	-0.3555492768891971	1.191138721679158	0.6089025969475628	-0.3648154706739337	1.300071999030382	0.3697665472133052	-0.4315563926102837	1.226125587775771	0.3173298539564335	-0.3653479308988705	1.287543209651147	0.1812691478304426	-0.4441773028614242	1.250203105006981	0.5330866413577769	-0.3675967031517275	1.258647746272519	0.5350910445157872	-0.4810335544851304	1.253812013952702	0.06028711773870044	-0.3816902049039016	1.264408695461694	0.06377028680977448	-0.4857696995119666	1.085711942468166	0.9067546591899565	-0.4302898389333207	1.258622316282239	0.5326816206697204	-0.4264864826973656	0.9843148930815137	1.120114623726183	-0.293861677008915	1.246146927818289	0.04876400168493694	-0.4423975842108996	1.139451064160297	1.431975314230034	-0.2984516713589129	1.109126853063996	1.486701310768077	-0.6554813776741402	1.164434006864719	1.443321326892035	-0.6897850732562564	1.058861187147033	1.464353650910528	-0.6830203862130841	1.050265718360616	1.125507444532745	-0.7700816187120525	1.046951989108298	1.112740106771092	-0.6839133338084618	1.038818314315146	1.360779526648357	-0.7180035607048716	1.093091534001632	1.286792818258468	-0.7330338313522893	1.057652099617167	1.196167661299058	-0.7539567127734444	1.121890982923049	1.074041347752399	-0.7547276214349331	1.247666629250716	0.942033390736694	-0.7268955733913591	1.196009380057126	0.898271525313336	-0.7505538446523268	1.14890550340447	1.015762038757412	-0.6399443678897198	0.9873086765760142	1.057164422151975	-0.5612173717756648	0.608164677973237	0.2264079838906818	-0.5648615156528631	0.7641931078180688	0.04761920666116602	-0.5655067405359598	0.6971305554736968	0.05276319759166321	-0.6560430052612162	1.08893003122324	0.8744262193844152	-0.6893615291278616	0.9862100488423461	0.7410321648057585	-0.6496365920341053	1.007066032752542	0.6001214925788982	-0.6603702844631824	0.9552982565751942	0.37013963825064	-0.6056858887184371	0.8194835984513724	0.3503324408160598	-0.6519006142079096	0.787932890820679	0.2326655701528492	-0.5942390617373676	0.9982290462686252	0.5120381340652659	-0.682532577834666	1.023307458291207	0.4977265280928665	-0.5724894043822596	0.6602169419606957	0.1831200543162076	-0.6369704304711543	0.6844650854212244	0.1726055352852056	-0.5356864941736581	1.073657625861873	0.9073495744784346	-0.5895005734644446	1.014363084937683	0.4987954954315141	-0.6262030165162533	1.051951453350433	1.112326153640747	-0.7217446199377716	0.6552036106508103	0.1778890828762892	-0.5751284940660555	1.118641796312172	1.452444097435057	-0.6868508902512804	
30	3.525	1.188156534938968	1.443780552664969	-0.4596393439342842	1.06877412311549	1.514779988250365	-0.4902031872911079	1.136707366578956	1.464084274284998	-0.3257976291118577	1.192098713573571	1.423585368691334	-0.3011254174761366	1.094317466299683	1.442826293850076	-0.294593087980582	0.9864861168161487	1.137078843504805	-0.2473340088683026	0.9974295248261189	1.125394782573898	-0.3272528969054198	1.032731172956928	1.35819846924372	-0.2682777454295521	1.077647935112834	1.289500669010981	-0.266153291042474	1.021986872204007	1.194284080966417	-0.2489933373222997	1.031718839738167	1.0362254498707	-0.2606475486079041	1.046485451985725	0.8640570864140885	-0.2663344062031044	0.978590550415792	0.8692951329380865	-0.2568005996529636	1.177204439732988	1.016845457443767	-0.3896187781375383	1.003385214786144	1.053216507356075	-0.4479112737931474	1.177193901790841	0.04486897067084293	-0.4421805132722977	1.417983784551225	0.0481597811720309	-0.4686057474719076	1.375197276766621	0.01613962661717377	-0.3739847738826576	1.109730432043257	0.8924581241822455	-0.3319621695303354	1.108238447944572	0.7387666993848941	-0.3541546803435806	1.196972224156352	0.6090621724275191	-0.3636735397277805	1.303767400062456	0.369196916814543	-0.4309569559771856	1.229420852795766	0.3174123944449565	-0.3646833330807525	1.289260279778214	0.1808618414556191	-0.4438786572423407	1.255625685051197	0.5329337162764438	-0.3666104501953491	1.263953534557373	0.5350265696259349	-0.4800543382017992	1.254408867013129	0.06012588515715522	-0.3815305180199703	1.264822686473263	0.06368215360663804	-0.4856259965126401	1.093072079139476	0.9075526572879271	-0.428679231548471	1.264018226709539	0.5325232933898385	-0.4255164340996024	0.9927033567674917	1.119994843050134	-0.292203365952435	1.246497487278171	0.04878952614479753	-0.4422414617318945	1.146293088288118	1.432598780081947	-0.2980653477239441	1.114838242742952	1.487159673046487	-0.6550224954572176	1.170153333268657	1.443903936331528	-0.6894699887563259	1.064549586212858	1.464684135502969	-0.682415072901127	1.055524564476239	1.125831117647594	-0.768678930305808	1.052272337922517	1.113305069003131	-0.6824728970708656	1.044392040942564	1.361258764116262	-0.7172395484453038	1.098567375719319	1.28716881100832	-0.7321135653718744	1.063005931256999	1.196526992582453	-0.7527553669060845	1.126441498423354	1.073304560806152	-0.7534053187791406	1.250015271238827	0.9391857421990355	-0.7258027466076249	1.197582121742923	0.896305406630275	-0.7493681389041446	1.15605030588026	1.015595510952434	-0.6388970737610662	0.9944201220208435	1.057167697181252	-0.5603281950198843	0.6175919202589635	0.234717515565201	-0.5659671602631883	0.766180835779714	0.04969996844361692	-0.5652218149080486	0.6991466858174473	0.0567101232241799	-0.6556537908282134	1.096679725437608	0.8756425610773629	-0.688078404825432	0.9959700476035854	0.7403467227874486	-0.6496591891077153	1.018909971078284	0.5998758825366307	-0.661812571997026	0.9662522625038811	0.3705512213867509	-0.607729014099728	0.8299322099395468	0.3533010555535374	-0.6534785750938408	0.7962873969055637	0.2363735163192529	-0.5954977906777391	1.011370626558332	0.5118976090096492	-0.6848542580478089	1.036711684642359	0.4968575835466685	-0.5749685117118311	0.667498368548946	0.1892397508104857	-0.6377338644833195	0.6918603740498861	0.1784397874493169	-0.5365073027368069	1.080968446189219	0.9073329254754615	-0.5878871843973197	1.02773748994349	0.4979986946766344	-0.6286728539633172	1.05723791715446	1.112781147630242	-0.7203072827456264	0.6625814711941195	0.1842190602241527	-0.5758667614494889	1.124347707983204	1.452917347722141	-0.6864099190041334	
31	3.53	1.194486054070055	1.444478445447303	-0.459404952880004	1.074844635058123	1.515186874738313	-0.4896287433601066	1.14338528373965	1.464686313975131	-0.3254153414007198	1.198945903662848	1.424324559131599	-0.3008994901436098	1.101138822168056	1.443333584826072	-0.2940812352599915	0.9949171049060317	1.137068058914769	-0.245727368845437	1.005628968898034	1.125253386404642	-0.325658424181235	1.040030486750144	1.35835704581643	-0.2673398943839426	1.085282036401874	1.289879128089961	-0.2652212571345997	1.030138172868904	1.19443788469771	-0.247644569475507	1.040927315704266	1.036562918489493	-0.2589696225590419	1.057200498919354	0.8645197954616306	-0.2643255434671051	0.9892952954226756	0.8691774580459071	-0.2545665591326726	1.184386784654297	1.017992902134748	-0.3886188583325331	1.010495141789174	1.053833400743972	-0.4470238793813691	1.177506072866744	0.04514115079791743	-0.441984568133265	1.418291089972272	0.04768249759891663	-0.468536539245519	1.375452032456187	0.01569220771910978	-0.3739292419918925	1.117063249268633	0.8930793127754296	-0.3303952247573464	1.114652264752753	0.7394264336790026	-0.3527730599526821	1.202619563489242	0.6092202202957681	-0.3625532638063693	1.307295320241446	0.3686401949024534	-0.4303671798391774	1.232567933002472	0.3174838840338342	-0.3640340177398739	1.290891895297582	0.1804808536013456	-0.4435776849098864	1.260826105699592	0.5327558705781008	-0.3656512341343232	1.269034503604213	0.5349391612934244	-0.4791021234391311	1.25496466619971	0.05999093033102321	-0.3813643810337871	1.265209122312775	0.06362110840057578	-0.4854741128064787	1.100380838531527	0.9083887716705199	-0.4270743506165688	1.269182021339977	0.5323438948308428	-0.4245726632623581	1.001054587604611	1.11991122439048	-0.2905799126364192	1.246821951989613	0.0488372966257507	-0.442078582929402	1.153128176336613	1.433229337218175	-0.2977054786433788	1.120486087591661	1.487643370784204	-0.6545784401586412	1.175801908783239	1.444512735827375	-0.6891812730966389	1.070170260768864	1.465042483577406	-0.6818175578223312	1.060814087196268	1.126158787431223	-0.7672734302106196	1.057615670948162	1.113880947288383	-0.6810296836939304	1.04992549083376	1.361741499368604	-0.7164960325451427	1.104025014050525	1.287562191784832	-0.7311996492210961	1.06836905314233	1.196893121853648	-0.7515567551033062	1.131003612630833	1.072585691517069	-0.7520677503860472	1.252338018674131	0.9363982292682532	-0.7246601992504592	1.199145787430353	0.8944085051822689	-0.7481279572415755	1.163127518751693	1.015420094602185	-0.6378780661643483	1.001476727005826	1.057188706829751	-0.559455899212419	0.6274768468823866	0.2430772841483851	-0.5670648760227606	0.7684250687367787	0.05218602900835528	-0.564864520286103	0.7014721780439757	0.06103549403371537	-0.6551953522134071	1.104393517412899	0.8768875755546733	-0.686777353386963	1.005782528451961	0.7396795410341624	-0.6497197317210786	1.030879652200793	0.599707283347768	-0.6632808239764776	0.9774290764547617	0.3711114093430998	-0.6097869993068903	0.8406525997417229	0.3563955415010572	-0.6550571432783133	0.8049639973605323	0.2402411511370536	-0.5967452620170538	1.024692000824996	0.5118589275288277	-0.6872039712402096	1.050275560107012	0.4961093155933703	-0.5774739386287767	0.6751557259068385	0.1955092049887329	-0.638470041975437	0.699641149752779	0.1844291650443069	-0.5373035452605388	1.088209301599051	0.9073259911944069	-0.5862737307954695	1.041277159313249	0.4973175304332751	-0.6311732889377599	1.062552380693822	1.113245025124167	-0.7188661305406996	0.6703483052304402	0.1906969577919492	-0.5765777756191516	1.129984181457004	1.453417513913951	-0.685987261596408	
